<svg width="83" height="18" viewBox="0 0 83 18" fill="none" xmlns="http://www.w3.org/2000/svg">
<path d="M5.52 17V15.968C4.32 15.968 3.888 15.848 3.888 15.08C3.888 14.672 4.08 14.096 4.224 13.688L4.92 11.936H10.44L10.992 13.376C11.256 14.048 11.472 14.84 11.472 15.2C11.472 15.92 10.656 15.968 10.056 15.968V17H17.76V15.968C16.656 15.968 16.032 15.224 15.384 13.688L10.2 1.112H7.68L2.472 13.64C1.728 15.536 1.272 15.968 0.048 15.968V17H5.52ZM5.352 10.688L7.776 4.712H7.872L10.008 10.688H5.352ZM27.0006 17V15.968C24.9366 15.968 24.6246 15.704 24.6246 13.76V10.04H25.1046C25.9206 10.04 26.2566 10.136 26.6886 10.88C27.6486 12.44 28.1046 13.136 30.2646 17H35.7126V15.968C34.6086 15.968 33.9126 15.8 33.1686 14.744C30.5766 11.12 29.9046 9.992 29.1366 9.488V9.368C31.1286 8.912 32.9286 7.904 32.9286 5.264C32.9286 2.216 29.9766 1.232 26.6406 1.232H18.8166V2.264C20.7366 2.264 21.0486 2.72 21.0486 4.136V13.736C21.0486 15.704 20.6406 15.968 18.8166 15.968V17H27.0006ZM24.6246 8.864V2.48C25.0806 2.408 25.5606 2.408 26.0646 2.408C28.2966 2.408 29.2086 3.608 29.2086 5.432C29.2086 8.048 27.9366 8.768 25.5366 8.888L24.6246 8.864ZM46.7344 17V15.968C44.6944 15.968 44.4304 15.704 44.4304 13.52V2.576H45.4864C48.1504 2.576 48.4384 3.392 48.9904 5.984H50.1904L49.9744 1.232H35.3584L35.0944 5.984H36.2944C36.7984 3.392 37.1104 2.576 39.7744 2.576H40.8544V13.52C40.8544 15.704 40.5904 15.968 38.5024 15.968V17H46.7344ZM52.5707 17.312C52.5707 16.856 52.8347 16.568 53.1947 16.568C53.7227 16.568 54.1787 17.288 56.5067 17.288C60.1067 17.288 62.5307 15.68 62.5307 12.704C62.5307 9.68 60.2747 8.336 57.9947 7.304C56.0507 6.392 54.3467 5.72 54.3467 3.968C54.3467 2.696 55.2107 2.096 56.9147 2.096C58.7147 2.096 59.8187 3.104 60.5387 6.008H61.6667L61.5227 0.967999H60.6107C60.5147 1.448 60.1787 1.544 59.8907 1.544C59.2907 1.544 58.5707 0.967999 56.7467 0.967999C53.4827 0.967999 51.4187 2.336 51.4187 5C51.4187 7.928 53.3627 8.984 55.5947 10.088C57.4427 10.976 59.1467 11.744 59.1467 13.808C59.1467 15.416 57.6827 15.944 56.1467 15.944C54.2027 15.944 53.2667 15.2 52.5227 12.128H51.3227L51.5387 17.312H52.5707ZM75.6418 17V15.968C73.7218 15.968 73.2178 15.8 73.2178 13.712V11.024L76.8178 4.328C77.8498 2.528 78.3538 2.336 79.7218 2.264V1.232H74.2738V2.264C75.4978 2.264 75.6418 2.528 75.6418 2.864C75.6418 3.104 75.5218 3.44 75.4018 3.632L72.4498 9.44H72.2818L71.3698 7.496L69.3538 3.848C69.1378 3.464 68.9938 3.08 68.9938 2.816C68.9938 2.456 69.1858 2.264 70.4818 2.264V1.232H63.0178V2.264C64.1458 2.264 64.6018 2.456 66.4018 5.504L69.6418 11V13.712C69.6418 15.824 69.3778 15.968 67.2658 15.968V17H75.6418ZM80.8667 17.24C82.0667 17.24 82.7387 16.52 82.7387 15.416C82.7387 14.336 82.0907 13.616 80.8907 13.616C79.6667 13.616 78.9947 14.336 78.9947 15.416C78.9947 16.52 79.6667 17.24 80.8667 17.24Z" fill="#292929"/>
</svg>
